<?xml version="1.0" standalone="no"?>
<!DOCTYPE svg PUBLIC "-//W3C//DTD SVG 20010904//EN"
 "http://www.w3.org/TR/2001/REC-SVG-20010904/DTD/svg10.dtd">
<svg version="1.0" xmlns="http://www.w3.org/2000/svg"
 width="2400.000000pt" height="723.000000pt"  viewBox="0 0 2400.000000 723.000000"
 preserveAspectRatio="xMidYMid meet">
<metadata>
Created by potrace 1.16, written by Peter Selinger 2001-2019
</metadata>
<g transform="translate(0.000000,723.000000) scale(0.100000,-0.100000)"
fill="#fff" stroke="none">
<path d="M2310 6914 c-602 -80 -1013 -389 -1165 -876 -51 -165 -43 -248 27
-281 28 -13 637 -87 717 -87 11 0 36 14 55 30 28 25 41 50 65 128 34 109 77
179 146 240 211 186 601 172 751 -25 70 -92 94 -203 94 -434 l0 -156 -72 -7
c-684 -65 -1001 -129 -1265 -257 -366 -178 -595 -489 -654 -889 -18 -123 -7
-413 20 -520 42 -168 97 -283 190 -399 201 -253 519 -368 944 -341 372 24 598
125 886 396 71 67 95 84 101 73 38 -67 173 -240 241 -308 117 -117 152 -141
206 -141 62 0 91 18 228 139 66 59 184 162 262 229 78 67 149 132 158 144 20
29 19 81 -2 121 -9 18 -51 82 -94 142 -83 118 -128 204 -156 300 -15 54 -18
147 -24 930 -6 845 -9 912 -39 1053 -96 440 -444 714 -1011 796 -133 20 -461
20 -609 0z m690 -2216 c0 -112 -5 -243 -11 -293 -39 -314 -198 -556 -427 -646
-45 -18 -78 -23 -157 -23 -88 -1 -107 2 -157 26 -159 74 -248 240 -248 463 0
217 93 402 257 511 146 97 395 157 676 163 l67 1 0 -202z"/>
<path d="M11245 6915 c-460 -64 -801 -246 -1010 -539 -89 -125 -167 -312 -196
-469 -11 -59 -10 -68 7 -98 36 -61 51 -64 422 -104 374 -40 381 -40 423 13 10
14 26 50 35 81 24 85 42 130 74 175 99 145 263 226 459 226 235 0 391 -111
447 -317 10 -37 17 -124 21 -243 l6 -186 -219 -22 c-597 -62 -871 -121 -1119
-241 -384 -187 -613 -505 -664 -926 -52 -427 88 -825 363 -1032 183 -137 391
-197 681 -195 431 2 676 99 1002 398 l92 85 60 -89 c83 -121 161 -211 254
-295 75 -68 80 -71 135 -75 69 -5 71 -4 311 207 86 75 197 171 248 214 141
119 142 151 12 332 -94 131 -141 222 -171 330 -22 79 -22 94 -28 965 -6 850
-7 889 -28 978 -29 130 -48 184 -100 287 -39 76 -63 107 -151 195 -179 178
-387 277 -701 335 -129 24 -523 30 -665 10z m685 -2177 c0 -366 -35 -538 -144
-722 -48 -79 -159 -189 -232 -228 -145 -78 -317 -75 -442 8 -120 79 -184 225
-184 425 0 125 15 196 63 297 116 242 411 371 872 381 l67 1 0 -162z"/>
<path d="M6370 6889 c-93 -14 -231 -63 -314 -111 -92 -53 -246 -208 -302 -303
-22 -39 -56 -105 -75 -147 l-34 -78 -5 254 c-5 236 -6 256 -25 276 -42 48 -63
50 -420 50 -364 0 -382 -2 -423 -55 l-22 -28 0 -1792 0 -1792 22 -28 c42 -53
57 -55 445 -55 335 0 359 1 397 20 77 37 70 -66 77 1230 5 1034 7 1175 22
1250 63 316 204 449 466 438 184 -8 286 -90 346 -279 43 -136 45 -207 45
-1414 0 -1251 -3 -1180 57 -1221 26 -18 54 -19 400 -22 413 -3 425 -2 463 60
20 33 20 48 20 1078 0 1043 6 1261 35 1401 34 161 121 281 248 344 96 47 166
59 263 45 195 -27 291 -126 324 -337 8 -47 11 -450 10 -1273 0 -1132 1 -1207
17 -1239 10 -19 31 -44 46 -55 27 -20 42 -21 400 -24 410 -3 415 -2 461 61 21
28 21 31 24 1385 3 1442 1 1522 -43 1701 -82 324 -323 554 -675 644 -72 18
-112 22 -255 21 -151 -1 -181 -4 -270 -28 -274 -72 -487 -246 -615 -499 l-49
-98 -42 83 c-68 136 -126 218 -223 314 -77 76 -107 99 -186 138 -137 67 -225
87 -400 91 -80 2 -174 -1 -210 -6z"/>
<path d="M17915 6886 c-299 -43 -542 -160 -755 -363 -286 -271 -466 -666 -537
-1173 -27 -194 -24 -617 6 -810 115 -749 471 -1257 1014 -1449 170 -60 269
-75 492 -75 223 0 322 15 492 75 325 115 608 362 797 696 265 469 344 1131
210 1766 -57 268 -180 559 -321 757 -211 294 -502 484 -858 560 -128 27 -407
35 -540 16z m390 -733 c124 -41 212 -133 264 -274 46 -125 83 -317 101 -529
13 -150 13 -684 0 -825 -42 -454 -179 -708 -416 -770 -208 -54 -386 37 -492
250 -88 179 -125 385 -142 793 -18 414 9 775 70 977 67 217 198 361 360 395
61 12 195 4 255 -17z"/>
<path d="M21840 6888 c-36 -5 -105 -22 -154 -39 -230 -77 -386 -229 -527 -514
l-69 -140 0 276 c0 387 35 359 -445 359 -372 0 -388 -2 -425 -62 -20 -33 -20
-45 -20 -1813 0 -1724 1 -1781 19 -1811 38 -62 50 -64 451 -64 316 0 366 2
397 16 73 35 67 -55 74 1164 6 1193 5 1181 64 1370 57 181 146 300 272 362 51
25 81 32 143 36 217 13 355 -108 413 -361 21 -90 21 -117 26 -1297 7 -1342 1
-1239 74 -1274 31 -14 81 -16 396 -16 393 0 407 2 449 55 l22 28 0 1316 c0
1399 -2 1464 -49 1678 -48 220 -112 344 -251 483 -182 183 -394 262 -688 259
-59 -1 -136 -6 -172 -11z"/>
<path d="M13805 6833 c-38 -10 -75 -44 -85 -81 -7 -24 -10 -136 -8 -320 l3
-284 37 -34 38 -34 605 0 c333 0 605 -2 605 -5 0 -3 -302 -438 -671 -967 -368
-529 -679 -978 -690 -999 -44 -88 -51 -140 -56 -461 -3 -168 -2 -327 1 -352 9
-58 54 -113 100 -121 26 -5 54 3 137 43 263 125 472 188 779 234 131 20 557
17 695 -5 267 -43 505 -113 714 -213 154 -73 203 -72 253 3 16 26 18 55 18
334 0 202 -4 318 -11 340 -28 83 -92 131 -282 213 -275 118 -547 174 -894 183
-106 3 -193 8 -193 10 0 2 283 409 629 903 346 494 642 925 657 957 l29 58 0
257 c0 244 -1 258 -21 285 -11 15 -36 36 -55 45 -32 17 -107 18 -1174 17 -627
-1 -1149 -4 -1160 -6z"/>
<path d="M14680 2924 c-397 -47 -673 -131 -930 -281 -123 -73 -170 -120 -170
-173 0 -31 5 -43 25 -56 29 -19 58 -18 370 15 314 33 519 44 720 38 212 -6
319 -23 405 -65 65 -32 94 -72 110 -149 37 -177 -83 -630 -329 -1246 -58 -144
-64 -196 -29 -221 56 -40 117 -11 243 113 283 279 495 676 609 1143 48 195 66
331 66 490 0 227 -23 267 -190 322 -161 53 -288 68 -590 71 -151 2 -291 1
-310 -1z"/>
<path d="M4119 2671 c-33 -33 -38 -75 -15 -119 43 -82 549 -494 927 -754 1291
-888 2778 -1392 4391 -1489 263 -15 952 -7 1188 15 1295 121 2489 482 3484
1053 249 143 551 346 604 407 82 94 57 218 -56 268 -72 32 -121 22 -352 -72
-1014 -410 -2143 -684 -3235 -785 -381 -35 -511 -40 -1010 -40 -517 0 -667 6
-1080 45 -1595 151 -3148 627 -4516 1386 -181 101 -211 114 -253 114 -39 0
-53 -5 -77 -29z"/>
</g>
</svg>
